# xmcd CD database file
#
# Track frame offsets:
#	150
#	16053
#	33450
#	49983
#	65865
#	82581
#	96519
#	115080
#	132316
#	146478
#	167823
#	180644
#	196389
#	211686
#
# Disc length: 3016 seconds
#
# Revision: 0
# Processed by: cddbd v1.5.1PL2 Copyright (c) Steve Scherf et al.
# Submitted via: CDex 1.50Beta6
#
DISCID=c00bc60e
DTITLE=BANDA XXI - PA QUE SIGAN BAILANDO
DYEAR=2006
DGENRE=Salsa
TTITLE0=CANDELA PURA
TTITLE1=ESO DUELE
TTITLE2=COMO HAGO
TTITLE3=DIME CORAZON
TTITLE4=MI PRIMAVERA
TTITLE5=ME CUESTA
TTITLE6=ENTRA EN MI VIDA
TTITLE7=EN LOS BRAZOS DE EL
TTITLE8=POBRE DIABLO
TTITLE9=USTED
TTITLE10=AHORA TE PUEDES MARCHAR
TTITLE11=LA COLITA
TTITLE12=VERANO
TTITLE13=MI NEGRA
EXTD=YEAR: 2006
EXTT0=
EXTT1=
EXTT2=
EXTT3=
EXTT4=
EXTT5=
EXTT6=
EXTT7=
EXTT8=
EXTT9=
EXTT10=
EXTT11=
EXTT12=
EXTT13=
PLAYORDER=
